# xmcd CD database file
#
# Track frame offsets:
#	150
#	16052
#	38935
#	51905
#	75500
#	91982
#	115487
#	138627
#	157137
#	173295
#	189332
#	191117
#	203017
#	226360
#
# Disc length: 3189 seconds
#
# Revision: 0
# Processed by: cddbd v1.5PL3 Copyright (c) Steve Scherf et al.
# Submitted via: CDex 1.51
#
DISCID=b30c730e
DTITLE=Kevyn Lettau - The Color Of Love
DYEAR=2003
DGENRE=Jazz
TTITLE0=Winter
TTITLE1=Pickin' Weeds
TTITLE2=Let Peace Surround You
TTITLE3=Thorns Have Roses
TTITLE4=You're Getting To Be A Habit With Me
TTITLE5=The Color Of Love
TTITLE6=I Wish You Enough
TTITLE7=My Cherry Tree
TTITLE8=The Heart Of The Child
TTITLE9=Strawberry Fields Forever
TTITLE10=Strawberry Fields Forever Outro
TTITLE11=Michael's Home
TTITLE12=Luna And Butterfly
TTITLE13=If I Loved You
EXTD=YEAR: 2003
EXTT0=
EXTT1=
EXTT2=
EXTT3=
EXTT4=
EXTT5=
EXTT6=
EXTT7=
EXTT8=
EXTT9=
EXTT10=
EXTT11=
EXTT12=
EXTT13=
PLAYORDER=
